<?xml version="1.0" standalone="no"?>
<!DOCTYPE svg PUBLIC "-//W3C//DTD SVG 20010904//EN" "http://www.w3.org/TR/2001/REC-SVG-20010904/DTD/svg10.dtd">
<svg version="1.0" xmlns="http://www.w3.org/2000/svg" width="606.000000pt" height="231.000000pt" viewBox="0 0 606.000000 231.000000" preserveAspectRatio="xMidYMid meet">
	<g transform="translate(0.000000,231.000000) scale(0.100000,-0.100000)" fill="#000000" stroke="none">
		<path d="M603 2098 c-50 -57 -36 -93 86 -213 50 -49 91 -94 91 -99 0 -6 -155
-166 -344 -356 l-344 -345 -21 -69 c-20 -65 -21 -90 -21 -488 0 -441 2 -465
45 -482 32 -12 73 -6 98 14 l26 21 3 437 c3 431 3 438 25 472 12 19 184 197
382 395 245 244 362 368 366 387 8 35 -6 62 -68 126 l-51 52 282 0 282 0 0
-282 0 -281 -59 56 c-53 51 -64 57 -102 57 -43 0 -43 0 -366 -322 -246 -245
-326 -331 -334 -358 -6 -22 -9 -165 -7 -382 l3 -346 24 -26 c34 -36 88 -36
122 0 l24 26 3 337 3 337 264 264 264 264 104 -101 c56 -56 114 -105 129 -108
34 -9 79 13 95 45 16 32 19 894 3 936 -21 55 -8 53 -516 54 l-471 0 -20 -22z" />
	</g>
</svg>
