<?xml version="1.0" standalone="no"?>
<!DOCTYPE svg PUBLIC "-//W3C//DTD SVG 20010904//EN"
 "http://www.w3.org/TR/2001/REC-SVG-20010904/DTD/svg10.dtd">
<svg version="1.0" xmlns="http://www.w3.org/2000/svg"
 width="1000.000000pt" height="387.000000pt" viewBox="0 0 1000.000000 387.000000"
 preserveAspectRatio="xMidYMid meet">

<g transform="translate(0.000000,387.000000) scale(0.100000,-0.100000)"
fill="#000000" stroke="none">
<path d="M2750 1965 l0 -1845 360 0 360 0 1 913 1 912 183 -910 c101 -501 184
-911 185 -912 0 -2 162 -3 360 -3 l360 0 0 1845 0 1845 -355 0 -355 0 0 -872
c0 -479 -2 -869 -4 -867 -2 2 -74 371 -160 819 -86 448 -161 839 -167 868
l-10 52 -380 0 -379 0 0 -1845z"/>
<path d="M5555 3280 c-328 -59 -543 -223 -640 -491 -58 -161 -58 -153 -62
-939 -6 -921 3 -1049 89 -1277 48 -126 91 -195 174 -278 82 -82 191 -142 314
-174 112 -28 297 -45 414 -37 405 28 620 149 746 419 74 158 105 329 116 635
l7 192 -375 0 -376 0 -4 -262 c-4 -239 -6 -267 -25 -308 -27 -60 -50 -78 -115
-92 -51 -11 -59 -10 -104 13 -95 47 -103 93 -111 567 l-6 372 551 0 550 0 7
308 c9 353 2 599 -20 724 -75 433 -376 650 -895 647 -83 0 -174 -8 -235 -19z
m315 -567 c71 -59 90 -161 90 -482 l0 -231 -180 0 -180 0 0 238 c0 248 8 325
42 405 40 92 159 129 228 70z"/>
<path d="M7716 3290 c-337 -54 -578 -244 -692 -550 -66 -173 -66 -182 -71
-950 -5 -737 2 -920 37 -1070 63 -264 196 -439 414 -541 273 -128 708 -128
981 0 270 126 407 349 445 720 17 168 13 1471 -5 1605 -53 397 -278 665 -640
761 -83 22 -127 27 -255 30 -85 2 -181 0 -214 -5z m277 -603 c22 -16 42 -45
54 -74 17 -45 18 -98 18 -933 l0 -885 -25 -44 c-32 -58 -79 -85 -145 -85 -70
0 -114 27 -145 89 l-25 50 -3 845 c-3 894 -2 933 43 1001 48 74 157 91 228 36z"/>
<path d="M905 2812 c-71 -24 -106 -102 -74 -165 6 -12 70 -82 142 -154 l132
-133 -457 -457 c-299 -301 -463 -472 -477 -500 -50 -100 -51 -118 -51 -726 0
-518 2 -571 17 -598 38 -64 126 -73 180 -17 l28 29 5 582 c5 542 6 584 24 617
10 19 240 258 512 530 l494 496 0 48 c0 47 -2 51 -80 130 -44 45 -80 85 -80
89 0 4 170 6 378 5 l377 -3 3 -385 2 -385 -77 77 c-43 42 -91 82 -107 88 -64
24 -68 21 -519 -428 -236 -235 -435 -439 -443 -454 -12 -22 -14 -110 -14 -510
0 -461 1 -484 20 -515 28 -47 85 -62 137 -37 73 36 73 33 73 524 l0 435 355
355 355 355 132 -132 c73 -72 143 -136 155 -142 50 -26 122 -2 148 49 14 26
15 108 13 649 -3 603 -4 619 -23 641 -44 50 -44 50 -672 49 -323 -1 -597 -4
-608 -7z"/>
<path d="M9080 430 l0 -310 380 0 380 0 0 310 0 310 -380 0 -380 0 0 -310z"/>
</g>
</svg>
